# xmcd
#
# Track frame offsets:
#	150
#	9689
#	21159
#	34305
#	43702
#	57224
#	68489
#	82782
#	92423
#	104601
#	117824
#	128213
#	144411
#	153205
#	163028
#	169544
#	184893
#	197123
#
# Disc length: 2769 seconds
#
# Revision: 0
# Processed by: cddbd v1.5.1PL0 Copyright (c) Steve Scherf et al.
# Submitted via: audiograbber 1.83.01
#
DISCID=e40acf12
DTITLE=Various Artist - BestCountryDanceAlbum on Earth
DYEAR=1996
DGENRE=Country
TTITLE0=Tex Ritter - Froggy Went a Courtin'
TTITLE1=George Jones - White Lightnin'
TTITLE2=Big Red Savage - Cowboys and Injuns
TTITLE3=Rusty Draper - I'm a Ramblin' Man
TTITLE4=Merle Haggard - Games People Play
TTITLE5=Faron Young - Wine me up
TTITLE6=Freddy Fender - Jambalaya
TTITLE7=Merle Haggard - Take me back to Tulsa
TTITLE8=Patty Loveless - Lonely Days, Lonely Nights
TTITLE9=Kathy Mattea - Ball and Chain
TTITLE10=Merle Haggard - Ida Red
TTITLE11=The Bellamy Bros - Redneck Girl
TTITLE12=Johnny Paycheck - The Johnsons of Turkey Ridge
TTITLE13=Gunner Thompson - Teamster Plan
TTITLE14=The Oakridge Boys - Victory is Coming
TTITLE15=Merle Haggard - San Antonia Rose
TTITLE16=Lynn Anderson - I never promised you a rose garden
TTITLE17=The Bellamy Bros - Let your love flow
EXTD=
EXTT0=dfgf fg 
EXTT1=
EXTT2=
EXTT3=
EXTT4=
EXTT5=
EXTT6=
EXTT7=
EXTT8=
EXTT9=
EXTT10=
EXTT11=
EXTT12=
EXTT13=
EXTT14=
EXTT15=
EXTT16=
EXTT17=
PLAYORDER=
